<svg width="23" height="23" viewBox="0 0 23 23" fill="none" xmlns="http://www.w3.org/2000/svg">
<path d="M13.4827 20.858L12.3987 21.942C11.9397 22.401 11.1975 22.401 10.7434 21.942L1.25122 12.4547C0.792236 11.9957 0.792236 11.2535 1.25122 10.7994L10.7434 1.30725C11.2024 0.848267 11.9446 0.848267 12.3987 1.30725L13.4827 2.39124C13.9465 2.8551 13.9368 3.61194 13.4631 4.06604L7.57935 9.67151H21.6125C22.262 9.67151 22.7844 10.194 22.7844 10.8434V12.4059C22.7844 13.0553 22.262 13.5778 21.6125 13.5778H7.57935L13.4631 19.1832C13.9417 19.6373 13.9514 20.3942 13.4827 20.858Z" fill="white"/>
</svg>
