<svg width="58" height="58" viewBox="0 0 58 58" fill="none" xmlns="http://www.w3.org/2000/svg">
<circle cx="28.6898" cy="28.6898" r="28.6898" fill="#1C1D1F"/>
<path d="M24.4954 19.3916C24.1732 18.6134 23.3239 18.1992 22.5123 18.421L18.8306 19.4251C18.1026 19.6259 17.5964 20.2869 17.5964 21.04C17.5964 31.3906 25.989 39.7831 36.3395 39.7831C37.0926 39.7831 37.7536 39.2769 37.9544 38.5489L38.9585 34.8672C39.1803 34.0556 38.7661 33.2063 37.9879 32.8842L33.9715 31.2107C33.2896 30.9262 32.4989 31.1228 32.0345 31.696L30.3442 33.7586C27.3989 32.3654 25.0141 29.9806 23.621 27.0353L25.6835 25.3492C26.2567 24.8807 26.4533 24.0941 26.1689 23.4122L24.4954 19.3958V19.3916Z" fill="white"/>
</svg>
