<svg width="58" height="58" viewBox="0 0 58 58" fill="none" xmlns="http://www.w3.org/2000/svg">
<circle cx="28.6898" cy="29.3102" r="28.6898" fill="#25D366"/>
<path d="M35.8096 22.0948C33.8061 20.0865 31.1379 18.9819 28.3024 18.9819C22.4497 18.9819 17.6872 23.7444 17.6872 29.5971C17.6872 31.4668 18.175 33.2933 19.1026 34.9047L17.5964 40.4036L23.2243 38.9261C24.7736 39.7724 26.5189 40.2171 28.2977 40.2171H28.3024C34.1504 40.2171 39.0181 35.4546 39.0181 29.6019C39.0181 26.7664 37.8131 24.1031 35.8096 22.0948ZM28.3024 38.4288C26.7149 38.4288 25.1609 38.0032 23.8077 37.1999L23.4873 37.0087L20.1498 37.8837L21.0391 34.6274L20.8288 34.2927C19.9442 32.8869 19.4803 31.2659 19.4803 29.5971C19.4803 24.7342 23.4395 20.775 28.3072 20.775C30.6646 20.775 32.8785 21.6931 34.5425 23.3619C36.2065 25.0307 37.2297 27.2446 37.225 29.6019C37.225 34.4696 33.1653 38.4288 28.3024 38.4288ZM33.1414 31.8206C32.8785 31.6867 31.5731 31.046 31.3292 30.9599C31.0853 30.8691 30.9084 30.826 30.7315 31.0938C30.5546 31.3616 30.0477 31.9545 29.8899 32.1362C29.7369 32.3131 29.5791 32.337 29.3161 32.2031C27.7573 31.4237 26.7341 30.8117 25.706 29.0473C25.4335 28.5787 25.9786 28.6121 26.4854 27.5984C26.5715 27.4215 26.5285 27.2685 26.4615 27.1346C26.3946 27.0007 25.8638 25.6953 25.6439 25.1646C25.4287 24.6482 25.2087 24.7199 25.0461 24.7103C24.8931 24.7008 24.7162 24.7008 24.5393 24.7008C24.3624 24.7008 24.0755 24.7677 23.8316 25.0307C23.5878 25.2985 22.904 25.9392 22.904 27.2446C22.904 28.55 23.8555 29.8123 23.9846 29.9892C24.1185 30.1662 25.8542 32.8439 28.5176 33.9962C30.2007 34.723 30.8606 34.7852 31.7022 34.6609C32.2138 34.5844 33.2705 34.0201 33.4905 33.3985C33.7105 32.7769 33.7105 32.2462 33.6435 32.1362C33.5814 32.0166 33.4044 31.9497 33.1414 31.8206Z" fill="white"/>
</svg>
